<svg xmlns="http://www.w3.org/2000/svg" viewBox="0 0 256 256" width="80" height="80"><rect x="91" y="91" width="74" height="74" rx="17" style="fill:#a34df4"/><path d="M241,140H230.5V116H241a15,15,0,0,0,0-30H230.33A65.08,65.08,0,0,0,170,25.67V15a15,15,0,0,0-30,0V25.5H116V15a15,15,0,0,0-30,0V25.67A65.08,65.08,0,0,0,25.67,86H15a15,15,0,0,0,0,30H25.5v24H15a15,15,0,0,0,0,30H25.67A65.08,65.08,0,0,0,86,230.33V241a15,15,0,0,0,30,0V230.5h24V241a15,15,0,0,0,30,0V230.33A65.08,65.08,0,0,0,230.33,170H241a15,15,0,0,0,0-30Zm-40.5,25.5a35,35,0,0,1-35,35h-75a35,35,0,0,1-35-35v-75a35,35,0,0,1,35-35h75a35,35,0,0,1,35,35Z" style="fill:#a34df4"/></svg>