<?xml version="1.0" standalone="no"?>
<!DOCTYPE svg PUBLIC "-//W3C//DTD SVG 20010904//EN"
 "http://www.w3.org/TR/2001/REC-SVG-20010904/DTD/svg10.dtd">
<svg version="1.0" xmlns="http://www.w3.org/2000/svg"
 width="310.000000pt" height="163.000000pt" viewBox="0 0 310.000000 163.000000"
 preserveAspectRatio="xMidYMid meet">

<g transform="translate(0.000000,163.000000) scale(0.100000,-0.100000)"
fill="#000000" stroke="none">
<path d="M2 1609 c2 -17 15 -25 58 -36 89 -22 258 -91 200 -81 -8 1 -26 -3
-40 -10 -22 -12 -23 -11 -7 1 29 24 0 39 -48 26 -27 -8 -34 -13 -25 -19 10 -6
3 -8 -18 -8 -18 1 -28 4 -22 8 7 4 12 11 13 16 1 5 7 8 14 6 7 -2 21 2 31 8
15 10 14 11 -5 7 -15 -4 -23 0 -23 9 0 8 -4 14 -10 14 -5 0 -10 -4 -10 -8 0
-5 -15 -9 -32 -9 -18 -1 -27 1 -20 4 10 4 8 9 -6 19 -11 8 -27 11 -36 8 -18
-7 -22 -44 -5 -44 6 0 9 7 5 15 -3 8 -1 15 4 15 6 0 10 -7 10 -15 0 -8 8 -15
18 -15 14 0 14 -2 3 -9 -8 -5 -23 -8 -33 -6 -10 2 -18 0 -18 -6 0 -5 10 -9 23
-9 13 0 28 -5 33 -10 6 -6 30 -12 53 -15 63 -6 101 -15 101 -25 0 -4 -8 -6
-19 -3 -25 6 -35 -11 -21 -38 7 -11 9 -23 6 -26 -2 -3 -13 12 -23 33 -13 29
-25 40 -44 42 -34 4 -49 -16 -38 -47 l10 -24 19 21 c25 26 25 32 3 33 -12 0
-13 2 -5 6 7 3 19 -1 27 -7 13 -11 13 -15 -5 -30 -11 -9 -17 -20 -13 -24 3 -3
-1 -6 -11 -6 -9 0 -14 -4 -11 -10 3 -5 -1 -10 -10 -10 -9 0 -14 4 -11 9 3 4
-5 6 -17 4 -13 -3 -29 -13 -35 -24 -11 -17 -9 -19 13 -19 14 0 25 3 25 8 0 4
12 8 26 9 15 0 30 6 34 13 6 9 9 9 12 -1 4 -12 8 -11 23 1 11 9 16 10 11 3 -4
-7 -3 -13 3 -13 5 0 11 4 13 9 2 5 17 3 33 -5 18 -8 21 -12 8 -8 -13 3 -23 1
-23 -4 0 -5 -14 -6 -31 -4 -23 3 -30 1 -25 -7 6 -8 0 -10 -21 -6 -27 6 -27 6
-8 -10 11 -8 25 -13 32 -11 7 3 13 1 13 -4 0 -6 -12 -10 -27 -10 -22 0 -25 -2
-13 -10 10 -6 11 -10 3 -10 -7 0 -13 -4 -13 -10 0 -5 7 -10 15 -10 8 0 15 5
15 11 0 7 11 8 30 4 26 -6 30 -4 30 14 0 13 -6 21 -17 21 -15 0 -15 2 -4 9 19
12 39 3 37 -17 -1 -13 9 -18 37 -20 28 -3 37 0 37 13 0 12 4 14 19 5 33 -17
53 -12 49 12 -2 17 -14 25 -52 34 -27 7 -54 18 -60 25 -8 9 -7 10 8 5 16 -5
17 -4 6 9 -14 17 -16 16 30 20 31 3 32 2 12 -9 -21 -11 -21 -12 -2 -24 30 -18
53 -15 46 6 -5 13 -2 12 12 -4 10 -12 27 -24 38 -27 16 -4 16 -5 2 -6 -21 -1
-23 -12 -6 -29 9 -9 9 -12 0 -12 -7 0 -5 -11 6 -30 9 -17 22 -28 28 -26 6 3
17 -1 23 -7 9 -9 14 -9 19 -1 19 30 134 71 222 80 36 4 68 11 71 17 9 13 42 0
34 -13 -3 -5 0 -10 7 -10 20 0 130 -55 153 -76 17 -16 36 -19 120 -19 93 0
105 -2 167 -33 71 -35 163 -115 153 -133 -4 -6 -24 9 -48 35 -40 43 -169 121
-181 109 -3 -3 -13 -2 -23 2 -48 20 -194 -5 -238 -41 -17 -14 -23 -22 -14 -19
10 4 20 2 23 -4 4 -6 13 -8 20 -5 8 3 17 1 20 -4 3 -6 -2 -13 -11 -16 -10 -4
-20 -1 -25 9 -11 19 -48 2 -48 -22 0 -13 3 -14 12 -5 14 14 28 16 28 3 0 -5
-12 -16 -26 -26 -15 -9 -23 -12 -20 -6 4 6 1 9 -7 5 -26 -10 -27 24 -1 41 14
9 22 20 19 25 -3 5 -20 -6 -37 -25 -16 -19 -36 -35 -44 -35 -18 0 -18 16 -1
27 7 4 21 19 30 33 9 13 17 21 17 17 0 -5 13 0 29 9 27 16 28 19 13 31 -15 13
-15 13 6 8 13 -4 35 -4 50 0 l26 6 -29 25 c-15 13 -32 24 -38 24 -5 0 -23 7
-40 14 -48 22 -126 32 -186 25 -66 -9 -137 -39 -119 -50 8 -5 17 -3 24 6 16
21 60 29 67 12 3 -10 14 -13 31 -10 15 3 26 1 26 -6 0 -6 -10 -11 -22 -11 -13
0 -30 -5 -38 -10 -11 -7 0 -9 35 -6 28 2 42 2 33 -1 -10 -2 -18 -6 -18 -9 0
-12 37 -44 52 -44 19 0 23 -5 32 -42 4 -17 2 -28 -4 -28 -5 0 -10 14 -10 30 0
20 -5 30 -15 30 -11 0 -15 -12 -16 -42 -1 -24 -3 -35 -6 -25 -2 9 -9 15 -14
11 -5 -3 -7 -10 -4 -15 4 -5 2 -9 -3 -9 -6 0 -13 16 -16 35 -9 46 -33 47 -28
1 4 -33 3 -34 -37 -41 -51 -8 -60 -21 -21 -29 28 -5 30 -8 31 -53 0 -27 3 -68
6 -92 3 -29 2 -41 -5 -37 -7 4 -9 -8 -7 -34 4 -37 -8 -56 -18 -27 -2 6 -4 -3
-5 -22 0 -22 6 -40 16 -48 15 -11 13 -13 -18 -14 -19 -1 -39 -1 -43 0 -5 1 -6
-3 -2 -8 3 -6 12 -8 20 -4 8 3 15 0 15 -6 0 -7 -10 -15 -22 -20 l-23 -8 23 -7
c13 -5 21 -10 18 -13 -3 -4 2 -12 12 -20 9 -8 11 -12 5 -8 -8 4 -13 -1 -13
-14 0 -14 5 -19 15 -15 10 4 15 0 15 -11 0 -10 -5 -15 -14 -12 -7 3 -19 0 -25
-6 -9 -9 -13 -6 -17 11 -4 12 -11 19 -16 16 -5 -3 -7 -13 -4 -21 5 -11 1 -13
-17 -7 -12 3 -19 3 -14 -1 4 -5 15 -9 25 -10 35 -2 84 -27 71 -36 -15 -9 13
-22 71 -33 l35 -7 -25 16 c-15 10 -17 14 -7 11 10 -3 28 -6 40 -7 14 0 17 -3
8 -6 -10 -4 -5 -10 15 -19 28 -12 28 -12 -16 -9 -52 4 -119 26 -166 56 -19 11
-38 18 -43 14 -13 -8 -76 49 -121 110 -36 50 -80 159 -80 201 0 16 -12 26 -47
42 -64 27 -136 50 -175 57 -17 3 -35 8 -39 10 -4 3 -10 -1 -12 -7 -4 -10 -6
-10 -6 0 -1 6 -8 12 -16 12 -13 0 -15 -58 -15 -465 l0 -465 1550 0 1550 0 0
244 0 245 -42 5 c-24 3 -54 4 -68 2 -14 -2 -29 -4 -35 -5 -5 -1 -3 -6 5 -11
11 -7 2 -8 -27 -4 -32 5 -56 1 -97 -16 -53 -21 -57 -21 -113 -7 l-58 16 65 1
c36 1 78 3 95 5 33 5 115 44 115 56 0 4 8 8 18 8 9 0 26 2 37 5 11 2 23 5 28
5 4 1 7 12 7 26 0 19 -7 26 -32 34 -18 5 -27 10 -20 10 6 1 12 5 12 10 0 5
-19 7 -42 5 -24 -2 -34 -1 -23 2 40 12 36 23 -13 40 -28 10 -48 22 -45 27 2 4
10 4 16 -1 7 -5 35 -17 64 -26 56 -18 102 -53 133 -101 l20 -30 0 543 0 542
-1551 0 -1550 0 3 -21z m363 -169 c10 -16 -12 -12 -29 6 -9 8 -16 12 -16 7 0
-4 -5 -1 -10 7 -8 12 -10 12 -10 1 0 -11 -3 -11 -15 -1 -8 7 -12 16 -9 21 5 9
78 -24 89 -41z m-45 -19 c9 -11 58 -12 65 -1 4 7 10 6 18 0 7 -6 31 -25 55
-42 32 -23 40 -33 30 -39 -18 -12 -28 -11 -28 2 0 5 5 7 10 4 6 -3 10 -1 10 4
0 6 -7 11 -15 11 -9 0 -18 7 -22 16 -3 8 -11 13 -19 10 -7 -3 -14 0 -16 6 -3
8 -10 8 -24 -1 -15 -10 -15 -11 -1 -7 9 3 17 4 17 2 0 -3 3 -11 6 -20 5 -12 0
-16 -17 -15 -22 0 -23 1 -4 8 16 7 12 10 -23 15 -23 5 -48 16 -55 25 -15 22
-57 33 -74 20 -7 -6 -18 -9 -25 -6 -8 4 -7 6 4 6 10 1 15 6 12 15 -4 11 3 12
43 3 26 -6 50 -13 53 -16z m-30 -16 c0 -1 -11 -5 -25 -7 -16 -3 -25 -1 -25 7
0 8 9 10 25 7 14 -2 25 -6 25 -7z m-142 -17 c-2 -6 -10 -14 -16 -16 -7 -2 -10
2 -6 12 7 18 28 22 22 4z m68 0 c5 -7 3 -8 -6 -3 -10 6 -12 4 -7 -9 4 -10 3
-15 -3 -11 -13 8 -13 35 -1 35 6 0 13 -5 17 -12z m99 -28 c3 -6 -1 -7 -9 -4
-18 7 -21 14 -7 14 6 0 13 -4 16 -10z m231 -55 c23 -19 25 -25 12 -25 -10 0
-18 5 -18 11 0 7 -11 9 -30 6 -17 -4 -30 -2 -30 3 0 6 9 10 21 10 11 0 17 5
14 10 -10 16 0 11 31 -15z m-116 5 c0 -5 -2 -10 -4 -10 -3 0 -8 5 -11 10 -3 6
-1 10 4 10 6 0 11 -4 11 -10z m-105 -10 c-3 -5 -12 -10 -18 -10 -7 0 -6 4 3
10 19 12 23 12 15 0z m95 -20 c0 -5 -2 -10 -4 -10 -3 0 -8 5 -11 10 -3 6 -1
10 4 10 6 0 11 -4 11 -10z m48 -3 c7 -5 22 -5 33 -2 15 5 19 4 14 -5 -4 -7
-20 -10 -36 -8 -28 4 -41 -6 -17 -14 7 -3 8 -7 3 -10 -6 -3 -21 -1 -35 5 -20
8 -22 11 -8 14 9 2 15 10 12 18 -6 14 12 15 34 2z m207 -27 c7 -12 -2 -12 -30
0 -19 8 -19 9 2 9 12 1 25 -3 28 -9z m70 -30 c4 -6 -5 -10 -20 -10 -15 0 -24
4 -20 10 3 6 12 10 20 10 8 0 17 -4 20 -10z m79 -2 c-3 -5 -9 -6 -14 -3 -4 3
-10 0 -12 -7 -3 -7 -11 -9 -24 -3 -18 7 -17 8 6 15 34 9 50 8 44 -2z m21 -28
c3 -5 2 -10 -4 -10 -5 0 -13 5 -16 10 -3 6 -2 10 4 10 5 0 13 -4 16 -10z m149
-69 c7 -11 -22 -23 -36 -15 -6 4 -5 10 3 15 18 11 26 11 33 0z m56 5 c0 -9
-30 -14 -35 -6 -4 6 3 10 14 10 12 0 21 -2 21 -4z m53 -3 c-7 -2 -19 -2 -25 0
-7 3 -2 5 12 5 14 0 19 -2 13 -5z m57 -13 c0 -5 -9 -6 -20 -3 -11 3 -20 9 -20
13 0 5 9 6 20 3 11 -3 20 -9 20 -13z m40 -10 c13 -8 13 -10 -2 -10 -9 0 -20 5
-23 10 -8 13 5 13 25 0z m66 -2 c3 -4 -1 -5 -10 -4 -8 1 -18 5 -22 8 -3 4 1 5
10 4 8 -1 18 -5 22 -8z m-304 -30 c-7 -7 -12 -8 -12 -2 0 14 12 26 19 19 2 -3
-1 -11 -7 -17z m301 -5 c-4 -10 -9 -11 -19 -2 -19 15 -18 18 5 16 11 -1 17 -6
14 -14z m-335 -18 c-3 -3 -9 2 -12 12 -6 14 -5 15 5 6 7 -7 10 -15 7 -18z
m372 -10 c7 -8 8 -15 2 -15 -5 0 -15 7 -22 15 -7 8 -8 15 -2 15 5 0 15 -7 22
-15z m-401 -62 c15 -34 14 -65 -5 -92 -15 -21 -15 -23 4 -37 48 -33 31 -137
-26 -164 -34 -16 -148 -25 -196 -16 l-36 7 2 177 3 177 85 5 c96 6 149 -12
169 -57z m654 56 c44 -12 52 -25 38 -62 -9 -24 -13 -26 -36 -17 -54 20 -114 8
-142 -29 -7 -9 -13 -42 -13 -73 0 -79 26 -110 95 -111 28 0 60 3 71 7 18 5 24
1 33 -26 13 -38 7 -44 -57 -54 -141 -21 -223 37 -230 165 -7 127 60 204 183
210 11 0 37 -4 58 -10z m454 -14 c11 -8 26 -30 33 -49 15 -47 -4 -91 -75 -165
-30 -32 -55 -61 -55 -64 0 -4 34 -7 75 -7 l75 0 0 -30 0 -30 -125 0 c-119 0
-125 1 -125 20 0 39 28 85 89 149 65 68 77 102 40 121 -16 9 -29 7 -59 -8
l-40 -19 -15 23 c-8 13 -15 27 -15 33 0 8 33 26 80 44 22 9 92 -2 117 -18z
m290 0 c42 -28 58 -73 58 -165 0 -63 -5 -95 -19 -123 -48 -98 -181 -87 -221
17 -24 62 -17 195 12 234 42 58 113 74 170 37z m-1128 9 c17 -4 45 -19 61 -34
25 -23 30 -36 30 -75 0 -38 -5 -52 -29 -76 l-30 -29 40 -65 c21 -36 39 -67 39
-70 0 -3 -20 -5 -45 -5 -44 0 -46 1 -82 60 -58 92 -83 92 -83 -1 l0 -59 -40 0
-40 0 0 173 c0 96 3 177 7 180 8 9 130 9 172 1z m-214 -24 c3 -5 1 -10 -4 -10
-6 0 -11 5 -11 10 0 6 2 10 4 10 3 0 8 -4 11 -10z m823 -177 l-3 -38 -65 -1
c-36 -1 -70 1 -77 3 -14 5 -18 55 -6 66 3 4 40 7 80 7 l74 0 -3 -37z m777 -53
c15 0 20 -7 21 -30 1 -35 3 -34 -40 -16 -39 16 -59 62 -23 52 12 -3 31 -6 42
-6z m-2285 -79 c0 -5 6 -14 13 -18 15 -9 39 -83 27 -83 -5 0 -10 -12 -12 -27
-3 -25 -7 -28 -40 -29 -32 -1 -42 4 -63 32 -33 43 -33 124 0 124 7 0 18 13 25
30 l12 30 19 -24 c11 -13 19 -29 19 -35z m2581 21 c-7 -2 -18 1 -23 6 -8 8 -4
9 13 5 13 -4 18 -8 10 -11z m-2238 -38 c-7 -3 -10 -11 -7 -19 6 -15 -12 -30
-20 -16 -10 15 5 41 23 40 9 0 11 -3 4 -5z m1860 -41 c-7 -2 -21 -2 -30 0 -10
3 -4 5 12 5 17 0 24 -2 18 -5z m-1663 -105 c19 -25 23 -26 36 -13 9 8 12 19 9
25 -9 14 8 13 23 -2 17 -17 15 -31 -3 -25 -15 6 -31 -8 -18 -16 5 -2 2 -2 -4
-1 -7 2 -13 -2 -13 -8 0 -7 -5 -6 -15 2 -13 11 -14 10 -10 -1 3 -8 15 -21 28
-28 20 -13 21 -13 8 2 -20 25 -4 21 22 -5 12 -13 18 -20 13 -15 -16 11 -28 8
-19 -5 4 -7 -6 -5 -21 6 -16 10 -25 13 -22 7 5 -7 -1 -11 -14 -11 -12 0 -19 4
-16 9 4 5 2 11 -3 13 -4 1 -12 14 -16 27 -6 18 -4 22 6 15 10 -6 10 -3 -1 11
-9 11 -10 16 -2 11 14 -9 16 3 2 24 -8 12 -10 12 -10 1 0 -24 -12 -3 -16 26
l-3 28 19 -25 c11 -14 29 -37 40 -52z m28 37 c1 -13 -2 -27 -7 -30 -7 -4 -8
29 -2 53 3 9 7 -2 9 -23z m72 15 c0 -5 -2 -10 -4 -10 -3 0 -8 5 -11 10 -3 6
-1 10 4 10 6 0 11 -4 11 -10z m1704 -5 c3 -8 13 -15 21 -15 14 0 12 -5 -7 -28
-32 -40 -58 -32 -58 19 0 32 4 39 19 39 10 0 21 -7 25 -15z m-1173 -28 c-10
-9 -11 -8 -5 6 3 10 9 15 12 12 3 -3 0 -11 -7 -18z m-364 -23 c-3 -3 -12 -4
-19 -1 -8 3 -5 6 6 6 11 1 17 -2 13 -5z m26 -35 c-9 -9 -12 -7 -10 9 1 14 5
18 11 12 7 -7 6 -14 -1 -21z m-171 -4 c8 -18 17 -24 29 -20 9 3 20 2 23 -3 3
-5 -6 -9 -19 -9 -14 0 -28 4 -31 9 -4 6 -10 5 -16 -3 -8 -11 -9 -10 -4 3 3 10
1 20 -4 23 -13 8 -13 25 0 25 6 0 16 -11 22 -25z m488 21 c0 -2 -8 -10 -17
-17 -16 -13 -17 -12 -4 4 13 16 21 21 21 13z m-158 -23 c-6 -2 -9 -10 -6 -15
4 -7 2 -8 -5 -4 -13 9 -5 26 12 25 9 0 8 -2 -1 -6z m-42 -27 c0 -2 -7 -6 -15
-10 -8 -3 -15 -1 -15 4 0 6 7 10 15 10 8 0 15 -2 15 -4z m155 -4 c-53 -42 -60
-46 -33 -19 16 15 31 27 35 27 4 0 3 -3 -2 -8z m-285 -22 c0 -5 -2 -10 -4 -10
-3 0 -8 5 -11 10 -3 6 -1 10 4 10 6 0 11 -4 11 -10z m-140 -46 c0 -2 -9 0 -20
6 -11 6 -20 13 -20 16 0 2 9 0 20 -6 11 -6 20 -13 20 -16z m954 -1 c-6 -22 -4
-25 10 -20 9 4 15 3 12 -1 -6 -11 5 -26 29 -40 17 -9 17 -11 3 -12 -9 0 -20
-9 -23 -20 -5 -15 -12 -19 -31 -14 -18 5 -24 2 -24 -10 0 -9 -6 -16 -14 -16
-8 0 -16 -6 -19 -12 -4 -10 -7 -10 -18 0 -10 10 -11 15 -2 20 7 4 10 16 9 27
-2 11 -1 25 3 30 3 6 6 12 6 15 0 7 56 80 61 80 3 0 1 -12 -2 -27z m-609 7
c-3 -5 -12 -10 -18 -10 -7 0 -6 4 3 10 19 12 23 12 15 0z m-305 -20 c8 -5 11
-10 5 -10 -5 0 -17 5 -25 10 -8 5 -10 10 -5 10 6 0 17 -5 25 -10z m250 -5
c-14 -8 -34 -14 -45 -14 -13 0 -7 5 15 13 47 18 61 18 30 1z m-197 -12 c-7 -2
-19 -2 -25 0 -7 3 -2 5 12 5 14 0 19 -2 13 -5z m100 -10 c-13 -2 -33 -2 -45 0
-13 2 -3 4 22 4 25 0 35 -2 23 -4z m861 -43 c-6 -6 -10 -2 -11 12 -2 16 1 18
10 9 7 -7 8 -14 1 -21z m-1463 -83 c-10 -9 -11 -8 -5 6 3 10 9 15 12 12 3 -3
0 -11 -7 -18z"/>
<path d="M722 924 l-3 -35 47 3 c85 6 85 68 0 68 -41 0 -42 -1 -44 -36z"/>
<path d="M725 778 c0 -37 3 -43 23 -46 12 -2 38 2 57 8 27 9 35 17 35 35 0 30
-26 45 -77 45 l-39 0 1 -42z"/>
<path d="M2218 963 c-26 -6 -41 -67 -35 -140 5 -70 20 -95 51 -91 30 4 49 68
42 139 -8 85 -18 100 -58 92z"/>
<path d="M1070 909 l0 -52 43 7 c46 7 69 28 60 54 -9 27 -34 42 -70 42 l-33 0
0 -51z"/>
<path d="M0 1472 c0 -4 12 -8 28 -9 23 -1 24 -1 7 7 -26 11 -35 12 -35 2z"/>
<path d="M9 1441 c11 -7 11 -9 0 -13 -8 -3 -11 -8 -7 -12 7 -8 48 15 48 26 0
5 -12 8 -27 8 -20 0 -24 -3 -14 -9z"/>
<path d="M30 1400 c0 -5 -7 -7 -15 -4 -8 4 -15 1 -15 -5 0 -6 13 -11 30 -11
20 0 30 5 30 15 0 8 -7 15 -15 15 -8 0 -15 -4 -15 -10z"/>
<path d="M38 1300 c-7 -11 -20 -20 -28 -20 -13 0 -13 -1 0 -10 9 -6 18 -6 24
0 6 6 20 10 32 10 17 0 21 4 17 20 -3 11 -12 20 -19 20 -8 0 -19 -9 -26 -20z"/>
<path d="M0 1300 c0 -5 5 -10 10 -10 6 0 10 5 10 10 0 6 -4 10 -10 10 -5 0
-10 -4 -10 -10z"/>
<path d="M76 1253 c-6 -14 -5 -15 5 -6 7 7 10 15 7 18 -3 3 -9 -2 -12 -12z"/>
<path d="M0 1245 c0 -7 11 -12 25 -12 14 0 24 4 22 10 -5 15 -47 16 -47 2z"/>
<path d="M327 1238 c6 -11 43 -10 43 1 0 5 -11 8 -24 7 -13 0 -22 -4 -19 -8z"/>
<path d="M130 1220 c0 -6 7 -10 15 -10 8 0 15 2 15 4 0 2 -7 6 -15 10 -8 3
-15 1 -15 -4z"/>
<path d="M499 1203 c-13 -16 -12 -17 4 -4 9 7 17 15 17 17 0 8 -8 3 -21 -13z"/>
<path d="M72 1196 c7 -8 15 -12 17 -11 5 6 -10 25 -20 25 -5 0 -4 -6 3 -14z"/>
<path d="M578 1203 c6 -2 12 -11 12 -19 0 -9 4 -13 10 -9 14 9 0 35 -19 34
-10 0 -11 -2 -3 -6z"/>
<path d="M524 1184 c-10 -8 -13 -13 -6 -9 7 4 21 1 30 -7 15 -11 15 -11 5 3
-7 9 -10 19 -6 22 13 13 -4 7 -23 -9z"/>
<path d="M620 1169 c0 -5 5 -7 10 -4 6 3 10 8 10 11 0 2 -4 4 -10 4 -5 0 -10
-5 -10 -11z"/>
<path d="M248 1163 c6 -2 10 -8 7 -13 -2 -4 8 -10 24 -13 17 -4 31 -14 34 -24
4 -14 5 -12 6 5 1 16 -6 26 -19 29 -11 3 -20 9 -20 14 0 5 -10 9 -22 8 -13 0
-17 -3 -10 -6z"/>
<path d="M325 1159 c-9 -14 0 -22 28 -26 21 -3 21 -2 3 12 -23 18 -14 20 16 4
12 -7 18 -7 14 -1 -3 6 0 13 6 15 7 3 -4 6 -24 6 -20 1 -40 -4 -43 -10z"/>
<path d="M635 1154 c-20 -15 -20 -16 4 -12 14 2 26 9 29 16 5 16 -9 15 -33 -4z"/>
<path d="M138 1143 c6 -2 18 -2 25 0 6 3 1 5 -13 5 -14 0 -19 -2 -12 -5z"/>
<path d="M80 1129 c0 -7 -10 -9 -25 -7 -14 3 -25 4 -25 2 0 -1 -3 -10 -6 -18
-5 -14 -2 -15 19 -7 14 5 28 7 31 4 3 -4 6 -1 6 5 0 7 7 12 15 12 8 0 15 5 15
10 0 6 -7 10 -15 10 -8 0 -15 -5 -15 -11z"/>
<path d="M186 1133 c-8 -8 -13 -9 -41 -12 -8 0 -15 -7 -15 -15 0 -16 27 -29
35 -16 3 4 -1 11 -7 13 -8 3 -5 6 6 6 10 1 27 -8 36 -19 11 -13 21 -17 25 -10
3 5 1 10 -4 10 -6 0 -11 5 -11 11 0 6 7 9 15 5 8 -3 15 -1 15 5 0 7 10 9 25 5
14 -4 25 -2 25 3 0 12 -54 22 -58 10 -2 -5 -8 -7 -13 -3 -5 3 -9 0 -9 -5 0 -6
-5 -11 -11 -11 -6 0 -9 7 -5 15 6 16 3 19 -8 8z"/>
<path d="M680 1133 c0 -5 5 -15 10 -23 8 -12 10 -11 10 8 0 12 -4 22 -10 22
-5 0 -10 -3 -10 -7z"/>
<path d="M340 1105 c-7 -9 -8 -15 -2 -15 5 0 12 7 16 15 3 8 4 15 2 15 -2 0
-9 -7 -16 -15z"/>
<path d="M84 1096 c-3 -8 -13 -12 -24 -9 -10 3 -21 0 -24 -6 -5 -7 2 -11 16
-12 22 0 22 -1 3 -10 -16 -7 -14 -8 12 -5 42 5 53 13 53 37 0 22 -28 26 -36 5z
m26 -6 c0 -5 -5 -10 -11 -10 -5 0 -7 5 -4 10 3 6 8 10 11 10 2 0 4 -4 4 -10z"/>
<path d="M279 1085 c42 -19 47 -19 31 0 -7 8 -24 15 -39 15 -25 -1 -25 -1 8
-15z"/>
<path d="M1 1074 c0 -11 3 -14 6 -6 3 7 2 16 -1 19 -3 4 -6 -2 -5 -13z"/>
<path d="M250 1070 c20 -13 43 -13 35 0 -3 6 -16 10 -28 10 -18 0 -19 -2 -7
-10z"/>
<path d="M185 1060 c3 -5 8 -10 11 -10 2 0 4 5 4 10 0 6 -5 10 -11 10 -5 0 -7
-4 -4 -10z"/>
<path d="M618 1063 c7 -3 16 -2 19 1 4 3 -2 6 -13 5 -11 0 -14 -3 -6 -6z"/>
<path d="M75 1024 l-30 -13 30 6 c32 6 41 11 34 17 -2 2 -17 -2 -34 -10z"/>
<path d="M268 1013 c7 -3 16 -2 19 1 4 3 -2 6 -13 5 -11 0 -14 -3 -6 -6z"/>
<path d="M460 610 c6 -11 13 -20 16 -20 2 0 0 9 -6 20 -6 11 -13 20 -16 20 -2
0 0 -9 6 -20z"/>
<path d="M530 610 c0 -5 7 -7 15 -4 8 4 15 8 15 10 0 2 -7 4 -15 4 -8 0 -15
-4 -15 -10z"/>
<path d="M554 506 c11 -9 24 -16 30 -16 12 0 7 5 -24 19 -24 11 -24 11 -6 -3z"/>
</g>
</svg>
