<svg xmlns="http://www.w3.org/2000/svg" viewBox="0 0 42 29"><rect width="42" height="29" style="fill:#03316c"/><polygon points="26.93 4.24 15.04 4.24 13.65 10.28 28.35 10.28 26.93 4.24" style="fill:#fff"/><polygon points="24.9 14.61 24.9 18.63 22.24 21.17 22.24 22.38 24.81 24.73 26.96 24.73 32.34 15.33 28.38 12.34 24.9 14.61" style="fill:#fff"/><polygon points="17.25 24.76 19.82 22.38 19.82 21.17 17.16 18.63 17.16 14.61 13.65 12.37 9.66 15.33 15.07 24.76 17.25 24.76" style="fill:#fff"/><polygon points="23.57 14.61 24.84 11.22 17.16 11.22 18.46 14.61 18.07 18.39 20.97 18.39 23.93 18.39 23.57 14.61" style="fill:#fff"/></svg>