<svg xmlns="http://www.w3.org/2000/svg" viewBox="0 0 42 29"><rect width="42" height="29" style="fill:#f5f7fa"/><path d="M7.76,9.86H5.06a.38.38,0,0,0-.38.32L3.59,17.12a.22.22,0,0,0,.22.26H5.1a.38.38,0,0,0,.38-.31l.29-1.88a.38.38,0,0,1,.37-.31H7a2.78,2.78,0,0,0,3.08-2.58,2.06,2.06,0,0,0-.34-1.75A2.54,2.54,0,0,0,7.76,9.86Zm.32,2.54c-.15,1-.89,1-1.61,1H6.06l.29-1.82a.22.22,0,0,1,.22-.19h.19c.49,0,1,0,1.19.28A.94.94,0,0,1,8.08,12.4Z" style="fill:#253b80"/><path d="M15.86,12.37H14.57a.23.23,0,0,0-.23.19l-.06.36-.09-.13a1.83,1.83,0,0,0-1.53-.55,3,3,0,0,0-2.89,2.61,2.45,2.45,0,0,0,.48,2,2,2,0,0,0,1.63.66,2.48,2.48,0,0,0,1.8-.75l-.06.36a.22.22,0,0,0,.22.26H15a.37.37,0,0,0,.37-.31l.7-4.44A.22.22,0,0,0,15.86,12.37Zm-1.81,2.52a1.44,1.44,0,0,1-1.46,1.24,1,1,0,0,1-1.07-1.26A1.44,1.44,0,0,1,13,13.62a1.07,1.07,0,0,1,.86.35A1.11,1.11,0,0,1,14.05,14.89Z" style="fill:#253b80"/><path d="M22.77,12.37h-1.3a.37.37,0,0,0-.31.16l-1.8,2.65-.76-2.55a.38.38,0,0,0-.36-.26H17a.22.22,0,0,0-.21.29l1.44,4.22-1.35,1.9a.23.23,0,0,0,.18.36h1.3a.37.37,0,0,0,.31-.16L23,12.72A.23.23,0,0,0,22.77,12.37Z" style="fill:#253b80"/><path d="M27.09,9.86H24.38a.37.37,0,0,0-.37.32l-1.1,6.94a.23.23,0,0,0,.22.26h1.39a.26.26,0,0,0,.26-.22l.32-2a.36.36,0,0,1,.37-.31h.85a2.79,2.79,0,0,0,3.09-2.58,2.09,2.09,0,0,0-.35-1.75A2.51,2.51,0,0,0,27.09,9.86Zm.31,2.54c-.15,1-.89,1-1.61,1h-.41l.29-1.82a.22.22,0,0,1,.22-.19h.19c.49,0,1,0,1.19.28A.94.94,0,0,1,27.4,12.4Z" style="fill:#179bd7"/><path d="M35.19,12.37h-1.3a.22.22,0,0,0-.22.19l-.06.36-.09-.13A1.84,1.84,0,0,0,32,12.24a3,3,0,0,0-2.9,2.61,2.48,2.48,0,0,0,.48,2,2.06,2.06,0,0,0,1.64.66A2.47,2.47,0,0,0,33,16.76l-.06.36a.23.23,0,0,0,.23.26h1.17a.38.38,0,0,0,.37-.31l.7-4.44A.23.23,0,0,0,35.19,12.37Zm-1.81,2.52a1.46,1.46,0,0,1-1.47,1.24,1,1,0,0,1-1.07-1.26,1.45,1.45,0,0,1,1.45-1.25,1.11,1.11,0,0,1,.87.35A1.15,1.15,0,0,1,33.38,14.89Z" style="fill:#179bd7"/><path d="M36.72,10.05,35.6,17.12a.23.23,0,0,0,.23.26h1.11a.38.38,0,0,0,.38-.31l1.09-7a.22.22,0,0,0-.22-.26H36.94A.22.22,0,0,0,36.72,10.05Z" style="fill:#179bd7"/></svg>