<svg xmlns="http://www.w3.org/2000/svg" viewBox="0 0 42 29"><rect width="42" height="29" style="fill:#011b33"/><path d="M28,5.68H13.07a1,1,0,0,0-.93,1V8.32a.94.94,0,0,0,.93.94H28A1,1,0,0,0,29,8.32V6.65a1,1,0,0,0-.95-1Zm0,9.38H13.07a.86.86,0,0,0-.65.28.91.91,0,0,0-.28.66v1.69a1,1,0,0,0,.93.95H28a1,1,0,0,0,.95-.95V16A1,1,0,0,0,28,15.06Zm-6.52,4.68H13.07a.89.89,0,0,0-.65.27,1,1,0,0,0-.28.67v1.69a1,1,0,0,0,.93.95h8.39a.93.93,0,0,0,.93-.93V20.7A.89.89,0,0,0,21.48,19.74ZM29,10.36H13.07a.86.86,0,0,0-.65.28,1,1,0,0,0-.28.67V13a.94.94,0,0,0,.93.94H28.93a.93.93,0,0,0,.93-.94V11.31A.94.94,0,0,0,29,10.36Z" style="fill:#00c3f7"/></svg>