<svg xmlns="http://www.w3.org/2000/svg" viewBox="0 0 42 29"><rect width="42" height="29" style="fill:#635bff"/><path d="M33.85,14c.07-1.1.35-1.62.93-1.62s.85.53.88,1.62Zm4.11.65a4.74,4.74,0,0,0-.78-2.88,2.83,2.83,0,0,0-2.36-1.05c-2.09,0-3.4,1.55-3.4,4a4.08,4.08,0,0,0,1,3.08,3.62,3.62,0,0,0,2.63.9A4.91,4.91,0,0,0,37.72,18l-.27-1.68a4.31,4.31,0,0,1-2.09.51,1.32,1.32,0,0,1-1.5-1.39h4.06A7.35,7.35,0,0,0,38,14.63Zm-9.9,1.6a1,1,0,0,1-.89.58,1.5,1.5,0,0,1-.67-.15V13a1.4,1.4,0,0,1,.95-.49c.62,0,.94.68.94,2A3.93,3.93,0,0,1,28.06,16.23Zm2.06-4.82a2.21,2.21,0,0,0-1.85-.86,2.59,2.59,0,0,0-1.93.94l-.14-.78H24v11l2.48-.41,0-2.81a3.62,3.62,0,0,0,1.13.19,3,3,0,0,0,2.24-.93,4.85,4.85,0,0,0,1-3.36A4.85,4.85,0,0,0,30.12,11.41Zm-9.59-.7H23v8H20.53Zm1.26-.78a1.32,1.32,0,0,0,0-2.63,1.32,1.32,0,1,0,0,2.63Zm-2.32.67a1.48,1.48,0,0,0-1.49,1l-.16-.92H15.66v8h2.48V13.45a1.61,1.61,0,0,1,1.36-.52,2.43,2.43,0,0,1,.44,0v-2.3A2.23,2.23,0,0,0,19.47,10.6Zm-4.79,2L15,10.71h-1.6V8.46l-2.13.36L11,10.71l-.75.12-.27,1.72h1v3.63a2.46,2.46,0,0,0,.72,2,2.9,2.9,0,0,0,1.85.49,4.25,4.25,0,0,0,1.29-.19v-2a2.62,2.62,0,0,1-.72.12c-.48,0-.7-.25-.7-.82V12.55Zm-7.14,1.2c-.71-.27-1.12-.47-1.12-.8s.22-.44.64-.44a4.82,4.82,0,0,1,2,.54l.3-1.82A5.53,5.53,0,0,0,7,10.7a3.12,3.12,0,0,0-2,.62,2.2,2.2,0,0,0-.8,1.79c0,1.34.82,1.91,2.16,2.4.86.31,1.16.53,1.16.87s-.27.51-.8.51a5.63,5.63,0,0,1-2.33-.7L4,18a6.13,6.13,0,0,0,2.75.66,3.26,3.26,0,0,0,2.1-.61,2.24,2.24,0,0,0,.85-1.9C9.74,14.8,8.89,14.23,7.54,13.75Z" style="fill:#fff"/></svg>