<?xml version="1.0" encoding="utf-8"?>
<!-- Generator: Adobe Illustrator 23.0.3, SVG Export Plug-In . SVG Version: 6.00 Build 0)  -->
<svg version="1.1" id="Layer_1" xmlns="http://www.w3.org/2000/svg" xmlns:xlink="http://www.w3.org/1999/xlink" x="0px" y="0px"
	 viewBox="0 0 1000 1000" style="enable-background:new 0 0 1000 1000;" xml:space="preserve">
<style type="text/css">
	.st0{fill:#B379E9;}
	.st1{fill:#AC71E2;}
	.st2{fill:#A469DC;}
	.st3{fill:#9D61D5;}
	.st4{fill:#9659CF;}
	.st5{fill:#8E50C8;}
	.st6{fill:#8748C2;}
	.st7{fill:#8040BB;}
	.st8{fill:#7838B5;}
	.st9{fill:#7130AE;}
</style>
<g id="Layer_12">
	<rect y="0" class="st0" width="1000" height="1000"/>
</g>
<g id="Layer_11">
	<polygon class="st1" points="1000,0 0,0 0,1000 758.1,1000 1000,746.2 	"/>
</g>
<g id="Layer_10">
	<polygon class="st2" points="1000,0 0,0 0,1000 531.5,1000 1000,551.8 	"/>
</g>
<g id="Layer_9">
	<polygon class="st3" points="1000,0 0,0 0,1000 284.2,1000 1000,395.6 	"/>
</g>
<g id="Layer_8">
	<polygon class="st4" points="1000,0 0,0 0,1000 8.7,1000 1000,260.3 	"/>
</g>
<g id="Layer_7">
	<polygon class="st5" points="1000,0 0,0 0,801 1000,146.5 	"/>
</g>
<g id="Layer_6">
	<polygon class="st6" points="1000,0 0,0 0,613.7 1000,46.9 	"/>
</g>
<g>
	<polygon class="st7" points="905.7,0 0,0 0,440 	"/>
</g>
<g id="Layer_3">
	<path class="st8" d="M721.8,0L0,0l0,259.3C218,182.6,545.3,64.1,721.8,0z"/>
</g>
<g id="Layer_4">
	<polygon class="st9" points="423.5,0 0,0 0,91.7 	"/>
</g>
</svg>
